<?xml version="1.0" standalone="no"?>
<!DOCTYPE svg PUBLIC "-//W3C//DTD SVG 20010904//EN"
 "http://www.w3.org/TR/2001/REC-SVG-20010904/DTD/svg10.dtd">
<svg version="1.0" xmlns="http://www.w3.org/2000/svg"
 width="1280.000000pt" height="1280.000000pt" viewBox="0 0 1280.000000 1280.000000"
 preserveAspectRatio="xMidYMid meet">
<g transform="translate(0.000000,1280.000000) scale(0.100000,-0.100000)"
fill="#000000" stroke="none">
<path d="M5920 11683 c-25 -2 -59 -10 -77 -18 -17 -8 -34 -15 -38 -15 -7 0
-49 -37 -104 -91 -90 -91 -131 -148 -131 -183 0 -15 -7 -29 -16 -33 -12 -4
-14 -13 -9 -37 10 -46 6 -195 -7 -241 -6 -22 -10 -117 -10 -213 1 -152 4 -180
23 -230 40 -107 36 -383 -7 -426 -7 -7 -51 -18 -98 -24 -62 -8 -104 -21 -156
-47 -39 -20 -97 -40 -128 -46 -31 -5 -84 -22 -117 -36 -33 -14 -90 -34 -128
-44 -39 -10 -94 -34 -130 -58 -34 -22 -93 -52 -131 -66 -75 -28 -395 -178
-436 -204 -14 -8 -59 -41 -100 -72 -41 -31 -106 -76 -145 -101 -38 -25 -76
-53 -84 -62 -8 -10 -38 -29 -65 -43 -90 -45 -133 -81 -155 -127 -15 -31 -43
-59 -93 -97 -120 -89 -142 -116 -160 -189 -28 -113 -41 -228 -33 -293 3 -34 8
-152 10 -262 4 -189 12 -256 45 -375 30 -109 89 -377 98 -450 6 -47 16 -119
23 -160 14 -90 14 -231 2 -435 -5 -87 -6 -160 -1 -175 23 -64 190 -174 312
-205 140 -36 193 -27 261 40 25 25 38 31 61 28 21 -3 35 1 48 16 18 20 18 23
3 58 -8 21 -21 61 -28 88 -7 28 -18 61 -25 75 -7 14 -15 62 -19 106 -7 79 -9
83 -61 150 -30 38 -76 92 -103 119 -61 63 -75 90 -101 201 -12 49 -26 105 -32
125 -16 57 -16 477 1 514 10 22 16 114 21 331 5 185 12 309 19 322 11 21 14
22 171 43 88 12 151 34 201 70 73 51 338 117 377 93 10 -7 18 -25 18 -45 3
-54 21 -109 43 -130 12 -11 22 -38 26 -66 4 -27 15 -93 26 -148 10 -55 28
-161 38 -235 22 -152 47 -300 63 -376 6 -28 8 -80 6 -115 -7 -84 18 -263 43
-316 18 -38 19 -44 6 -70 -27 -52 -58 -167 -78 -293 -11 -69 -31 -169 -45
-222 -17 -67 -27 -149 -34 -260 -5 -90 -15 -194 -20 -233 -6 -38 -8 -88 -4
-110 4 -22 6 -69 6 -105 -1 -36 5 -90 14 -120 8 -30 26 -93 39 -140 26 -97 31
-111 74 -200 32 -66 82 -143 119 -183 11 -12 45 -72 76 -133 60 -119 65 -145
46 -245 -6 -30 -15 -101 -21 -159 -5 -58 -12 -126 -15 -151 -5 -41 -3 -49 17
-63 13 -9 35 -16 50 -16 39 0 88 -20 99 -40 30 -56 -17 -431 -59 -473 -7 -7
-58 -6 -143 2 -182 16 -199 17 -310 3 -140 -17 -198 -35 -333 -101 -73 -36
-161 -69 -225 -86 -58 -15 -123 -33 -145 -40 -22 -7 -76 -21 -120 -30 -44 -9
-93 -21 -110 -25 -62 -18 -301 -60 -342 -60 -23 0 -45 5 -48 10 -3 6 -20 17
-36 25 -24 13 -43 14 -117 5 -94 -11 -164 -26 -198 -42 -15 -7 -28 -7 -42 1
-27 15 -64 0 -86 -34 -9 -14 -28 -31 -42 -37 -47 -22 -56 -142 -17 -241 24
-60 70 -135 113 -182 82 -91 139 -256 146 -425 8 -200 40 -307 120 -402 21
-25 54 -65 73 -88 18 -23 52 -55 75 -71 37 -27 46 -30 91 -24 85 12 113 28
136 82 29 66 32 327 6 385 -9 21 -17 53 -17 72 0 19 -4 46 -10 61 -6 16 -7 41
-1 67 5 22 6 50 2 61 -5 13 -1 39 11 69 10 26 18 57 18 68 0 34 30 22 47 -17
8 -21 19 -60 23 -88 l8 -50 1 41 c1 26 9 52 23 69 21 27 21 29 5 57 -23 41
-22 46 19 86 19 19 39 45 44 58 17 44 58 60 250 96 30 6 201 14 380 18 312 7
396 13 560 46 43 9 149 17 250 19 270 5 522 20 551 32 75 32 112 91 153 246
33 121 55 177 71 177 16 0 53 -84 65 -151 5 -28 13 -56 17 -62 22 -34 39 -418
23 -501 -19 -91 -15 -476 5 -596 18 -104 46 -216 71 -283 9 -23 34 -100 56
-171 22 -72 53 -159 69 -195 17 -37 41 -108 55 -160 14 -51 41 -137 60 -190
20 -53 47 -130 61 -171 13 -41 28 -84 33 -95 5 -11 20 -60 35 -110 14 -49 33
-112 42 -140 8 -27 19 -93 24 -145 4 -52 13 -122 19 -155 5 -33 13 -114 16
-180 7 -131 19 -166 95 -270 63 -87 83 -100 147 -100 117 0 260 65 370 166 40
37 101 87 135 110 34 23 85 61 112 84 28 23 58 46 67 51 30 17 141 108 215
178 72 69 123 148 123 192 0 12 9 43 20 69 30 71 27 115 -12 151 -52 48 -115
84 -146 84 -33 0 -252 -101 -272 -125 -19 -23 -116 -20 -165 6 -66 34 -72 45
-48 71 11 13 23 28 27 35 11 19 -22 72 -48 79 -24 6 -79 -16 -91 -36 -13 -21
-44 -9 -65 25 -26 43 -48 55 -95 55 -33 0 -38 4 -55 43 -11 23 -20 52 -20 63
0 12 -6 37 -14 55 -7 19 -19 75 -26 124 -6 50 -16 104 -22 120 -5 17 -14 104
-18 195 -16 304 -38 587 -60 790 -6 47 -15 135 -22 195 -12 110 -14 332 -9
752 2 245 -2 272 -54 361 -26 44 -40 83 -54 162 -20 107 -29 139 -75 269 -34
92 -138 303 -177 355 -16 22 -29 50 -29 63 0 13 -11 46 -25 73 -24 48 -25 56
-24 242 0 220 12 302 57 405 36 80 39 105 17 156 -22 53 -18 115 11 193 36 96
45 139 43 198 -2 49 6 110 37 281 12 69 12 90 0 153 -10 52 -11 84 -4 109 10
36 -5 260 -23 338 -18 81 -11 205 16 284 25 72 35 122 55 276 22 159 35 200
82 266 66 93 92 149 142 310 51 163 80 233 129 310 19 30 37 68 41 85 20 93
130 89 293 -9 74 -45 124 -60 176 -54 35 4 57 -3 127 -38 47 -23 139 -59 205
-80 66 -20 172 -54 235 -75 63 -21 162 -53 220 -71 58 -17 123 -41 144 -51 25
-13 52 -18 75 -15 63 7 222 47 252 63 41 21 71 71 65 109 -3 17 -10 67 -16
112 -12 98 -30 170 -59 237 -12 27 -30 81 -40 120 -11 39 -26 91 -35 114 -23
65 -104 197 -161 263 -108 124 -128 152 -172 231 -25 46 -52 91 -61 101 -22
24 -103 158 -152 249 -32 60 -57 90 -106 130 -36 29 -90 75 -120 101 -48 42
-60 48 -83 41 -14 -4 -38 -7 -53 -6 -16 1 -43 3 -60 3 -42 1 -204 -28 -228
-41 -20 -11 -42 -65 -61 -155 -10 -48 -21 -67 -51 -95 -68 -63 -39 -133 65
-160 23 -6 49 -13 59 -16 9 -3 28 -20 42 -38 36 -48 171 -114 286 -141 113
-26 128 -35 162 -89 40 -62 124 -235 142 -289 18 -54 21 -133 6 -142 -6 -4
-50 7 -98 24 -48 16 -111 34 -140 40 -84 17 -116 35 -163 91 -48 58 -220 176
-339 235 -41 20 -82 42 -90 50 -8 7 -43 27 -76 43 -34 17 -64 37 -67 45 -8 21
-109 75 -207 111 -47 18 -116 51 -154 74 -39 23 -76 42 -83 42 -20 0 -162 73
-167 86 -3 7 2 45 11 85 15 74 40 134 74 178 13 16 19 40 19 78 0 41 6 63 27
96 25 39 27 50 26 137 -2 95 -2 95 39 157 34 53 39 68 33 95 -18 85 -17 159 3
206 12 28 18 58 15 75 -3 15 0 54 7 86 11 52 10 63 -7 102 -20 45 -110 143
-173 190 -22 16 -66 32 -120 43 -47 10 -108 29 -135 42 -32 15 -68 24 -98 24
-27 0 -58 5 -70 12 -22 12 -138 18 -217 11z m-1880 -4773 c0 -5 -4 -10 -10
-10 -5 0 -10 5 -10 10 0 6 5 10 10 10 6 0 10 -4 10 -10z m3278 -5336 c4 -28
-30 -56 -65 -52 -37 4 -44 39 -11 62 31 22 72 17 76 -10z"/>
</g>
</svg>
